<?xml version="1.0" encoding="UTF-8"?><svg id="Layer_1" xmlns="http://www.w3.org/2000/svg" width="25" height="25" viewBox="0 0 25 25"><rect width="25" height="25" fill="none"/><g><circle cx="12.5" cy="12.5" r="11.5"/><path d="M12.5,2c5.7897,0,10.5,4.7103,10.5,10.5s-4.7103,10.5-10.5,10.5S2,18.2897,2,12.5,6.7103,2,12.5,2m0-2C5.5964,0,0,5.5964,0,12.5s5.5964,12.5,12.5,12.5,12.5-5.5964,12.5-12.5S19.4036,0,12.5,0h0Z" fill="#fff"/></g><path d="M10.294,9.382l.706,5.118c-.0117,.5406,.417,.9883,.9575,1,.0142,.0003,.0283,.0003,.0425,0h1c.5406,.0117,.9883-.417,1-.9575,.0003-.0142,.0003-.0283,0-.0425l.706-5.118c0-1.382-2.206-1.382-2.206-1.382,0,0-2.209,0-2.206,1.382Zm-1.794,.618c-1.5,0-1.5,1-1.5,1l1,4h1.5c.4276,.0008,.7789-.3376,.794-.765l-.794-4.235h-1Zm-2,2.5c-.3927-.0034-.7718,.1441-1.059,.412-.2517,.2288-.4089,.5433-.441,.882v2.206h.882c.5607,.0542,1.0592-.3564,1.1134-.9172,.0027-.0275,.0042-.0552,.0046-.0828l-.5-2.5Zm10-2.5c1.5,0,1.5,1,1.5,1l-1,4h-1.5c-.4276,.0008-.7789-.3376-.794-.765l.794-4.235h1Zm2,2.5c.3927-.0034,.7718,.1441,1.059,.412,.2517,.2288,.4089,.5433,.441,.882v2.206h-.882c-.5607,.0542-1.0592-.3564-1.1134-.9172-.0027-.0275-.0042-.0552-.0046-.0828l.5-2.5Z" fill="#fff"/></svg>