<?xml version="1.0" encoding="UTF-8"?><svg id="Layer_1" xmlns="http://www.w3.org/2000/svg" width=".8819cm" height=".8819cm" viewBox="0 0 25 25"><rect y="0" width="25" height="25" fill="none"/><g><circle cx="12.5" cy="12.5002" r="11.5"/><path d="M12.5,2c5.7897,0,10.5,4.7103,10.5,10.5s-4.7103,10.5-10.5,10.5S2,18.2897,2,12.5,6.7103,2,12.5,2M12.5,0C5.5964,0,0,5.5964,0,12.5s5.5964,12.5,12.5,12.5,12.5-5.5964,12.5-12.5S19.4036,0,12.5,0h0Z" fill="#fff"/></g><path d="M12.5,11c-2.5,0-3,2.28-3,3.47h0c-.6097,.2059-1.1834,.5062-1.7,.89-.871,.6614-1.0492,1.8998-.4,2.78,.6799,.8542,1.9081,1.0297,2.8,.4,.6779-.4601,1.4808-.701,2.3-.69,.8192-.011,1.6221,.2299,2.3,.69,.8575,.6854,2.1072,.5515,2.8-.3,.6888-.8128,.5882-2.03-.2245-2.7188l-.0015-.0012c-.024-.021-.049-.041-.074-.06l-.1-.1c-.5333-.3565-1.1032-.6548-1.7-.89h0c0-1.18-.5-3.47-3-3.47Zm-5.42-1.7c-.7348,.3676-1.0652,1.2371-.76,2,.064,.8282,.7809,1.4517,1.61,1.4,.7348-.3676,1.0652-1.2371,.76-2-.064-.8282-.7809-1.4517-1.61-1.4Zm10.85,0c.7348,.3676,1.0653,1.2371,.76,2-.064,.8282-.7809,1.4517-1.61,1.4-.7348-.3676-1.0653-1.2371-.76-2,.064-.8282,.7809-1.4517,1.61-1.4Zm-7.85-3c-.68,.09-1,.94-.76,1.87,.1101,.8251,.7803,1.4621,1.61,1.53,.68-.09,1-.94,.76-1.87-.1101-.8251-.7803-1.4621-1.61-1.53Zm4.85,0c.68,.09,1,.94,.76,1.87-.1109,.8286-.7865,1.4665-1.62,1.53-.68-.08-1-.94-.76-1.87,.1106-.8288,.7863-1.4669,1.62-1.53Z" fill="#fff"/></svg>