<?xml version="1.0" encoding="UTF-8"?><svg id="Layer_1" xmlns="http://www.w3.org/2000/svg" width=".8819cm" height=".8819cm" viewBox="0 0 25 25"><rect y="0" width="25" height="25" fill="none"/><g><circle cx="12.5" cy="12.5002" r="11.5"/><path d="M12.5,2c5.7897,0,10.5,4.7103,10.5,10.5s-4.7103,10.5-10.5,10.5S2,18.2897,2,12.5,6.7103,2,12.5,2M12.5,0C5.5964,0,0,5.5964,0,12.5s5.5964,12.5,12.5,12.5,12.5-5.5964,12.5-12.5S19.4036,0,12.5,0h0Z" fill="#fff"/></g><path d="M7,6.15c.2091-.8016,1.0284-1.2819,1.83-1.0729s1.2819,1.0284,1.0729,1.83c-.2003,.7681-.9643,1.2471-1.7429,1.0929-.8126-.161-1.3409-.9502-1.18-1.7629,.0058-.0292,.0125-.0583,.02-.0871Zm11,11.17c.1032,.5426-.2531,1.066-.7956,1.1692l-.0044,.0008c-.4252,.086-.8574-.1119-1.07-.49h0l-1.68-3.37-1.45,.29-.22,.08h-.06v2.15l.62-.15h.14c.2871,.0054,.5155,.2425,.5101,.5297-.0039,.2064-.1295,.391-.3201,.4703l-5,1h0c-.0563,.0095-.1137,.0095-.17,0-.2872,0-.52-.2328-.52-.52,0-.2099,.1262-.3993,.32-.48h0l4.15-.83v-2.17l-3.22,.58h0c-.164,.0423-.336,.0423-.5,0-.3394-.0867-.6088-.3446-.71-.68h-.02l-1-4.07h0c-.0312-.1416-.0312-.2884,0-.43,.0936-.387,.4078-.6815,.8-.75h0l4.7-.52V5h.22v4.1h.06l.22-.02,.4-.08h.21c.2673,.0643,.4326,.3323,.37,.6-.0439,.235-.251,.4041-.49,.4l-.49,.08h-.28v2.86h.06l.22-.06,1.81-.36h0c.4275-.0352,.8299,.2062,1,.6h0l2,3.94h0c.077,.0758,.1411,.1636,.19,.26Zm-5.5-7.19l-2.5,.27,.74,2.94,1.76-.34v-2.87Z" fill="#fff"/></svg>