<?xml version="1.0" encoding="UTF-8"?><svg id="Layer_1" xmlns="http://www.w3.org/2000/svg" width="25" height="25" viewBox="0 0 25 25"><rect width="25" height="25" fill="none"/><g><circle cx="12.5" cy="12.5" r="11.5"/><path d="M12.5,2c5.7897,0,10.5,4.7103,10.5,10.5s-4.7103,10.5-10.5,10.5S2,18.2897,2,12.5,6.7103,2,12.5,2m0-2C5.5964,0,0,5.5964,0,12.5s5.5964,12.5,12.5,12.5,12.5-5.5964,12.5-12.5S19.4036,0,12.5,0h0Z" fill="#fff"/></g><path d="M18.33,11h-1.83l-.39-2.33c-.1601-.7182-.7017-1.2905-1.41-1.49-.3493-.1124-.7131-.173-1.08-.18h-2.24c-.3669,.007-.7307,.0676-1.08,.18-.7083,.1995-1.2499,.7718-1.41,1.49l-.39,2.33h-1.83c-.2761-.0017-.5013,.2208-.503,.497-.0003,.0519,.0074,.1035,.023,.153l1.88,6.3h0c.1964,.6246,.7753,1.0496,1.43,1.05h6c.651-.0047,1.2247-.4289,1.42-1.05h0l1.88-6.3c.0829-.2634-.0635-.5441-.3269-.627-.0463-.0146-.0945-.0223-.1431-.023Zm-8.81,0l.36-2.17c.0807-.3625,.3736-.6395,.74-.7,.2463-.0776,.5019-.1213,.76-.13h2.24c.2614,.0078,.5205,.0515,.77,.13,.3664,.0605,.6593,.3375,.74,.7l.35,2.17h-5.96Z" fill="#fff"/></svg>