<?xml version="1.0" encoding="UTF-8"?><svg id="Layer_1" xmlns="http://www.w3.org/2000/svg" width=".8819cm" height=".8819cm" viewBox="0 0 25 25"><rect y="0" width="25" height="25" fill="none"/><g><circle cx="12.5" cy="12.5002" r="11.5"/><path d="M12.5,2c5.7897,0,10.5,4.7103,10.5,10.5s-4.7103,10.5-10.5,10.5S2,18.2897,2,12.5,6.7103,2,12.5,2M12.5,0C5.5964,0,0,5.5964,0,12.5s5.5964,12.5,12.5,12.5,12.5-5.5964,12.5-12.5S19.4036,0,12.5,0h0Z" fill="#fff"/></g><path d="M10,8c-.5523,0-1-.4477-1-1s.4477-1,1-1,1,.4477,1,1-.4477,1-1,1Zm7.5,7h-2.5l-1-3-1-1.75,1-.25,2.3,1h0c.2761,.1105,.5895-.0239,.7-.3s-.0239-.5895-.3-.7h0l-2.7-1h-2l-2,1-1,1h-1.5c-.2761,0-.5,.2239-.5,.5s.2239,.5,.5,.5h2.5l1-1,1,2-2,2v3.5c0,.2761,.2239,.5,.5,.5s.5-.2239,.5-.5v-3.11l2-1.39,1,2h3.5c.2761,0,.5-.2239,.5-.5s-.2239-.5-.5-.5Z" fill="#fff"/></svg>