<?xml version="1.0" encoding="UTF-8"?><svg id="Layer_1" xmlns="http://www.w3.org/2000/svg" width="25" height="25" viewBox="0 0 25 25"><rect width="25" height="25" fill="none"/><g><circle cx="12.5" cy="12.5" r="11.5"/><path d="M12.5,2c5.7897,0,10.5,4.7103,10.5,10.5s-4.7103,10.5-10.5,10.5S2,18.2897,2,12.5,6.7103,2,12.5,2m0-2C5.5964,0,0,5.5964,0,12.5s5.5964,12.5,12.5,12.5,12.5-5.5964,12.5-12.5S19.4036,0,12.5,0h0Z" fill="#fff"/></g><path d="M7.9982,8.0687s.1875-1.062,1-1.062h1.0061v-.2791c0-.2761,.2239-.5,.5-.5h3.9839c.2761,0,.5,.2239,.5,.5v.2791h1.01c.2453-.0008,.4785,.1067,.6373,.2937,.1819,.2226,.3064,.4864,.3627,.7683,0,0,.3108,1.5719,.5921,2.9181h-.938l-.6523-2.9868-7.018-.0044-.6484,2.9912h-.9516l.6162-2.9181Zm11,4.9144c0,.552-.4472,.9996-.9992,1l-1.0008,3.973s-.1875,1.0417-1,1.0417h-7c-.8125,0-1-1.0417-1-1.0417l-1.016-3.9761c-.5513-.0109-.9895-.4666-.9787-1.018,.0107-.5423,.4523-.9769,.9947-.9788h11c.5522,0,.9999,.4477,1,.9999Zm-8.9655,4.1469l-.0027-1.1249-.3908-1.5365c-.0399-.2941-.3106-.5001-.6047-.4602-.2941,.0399-.5001,.3106-.4602,.6047l.2057,1.3944,.1874,1.2672c.04,.2942,.3108,.5003,.605,.4603,.2942-.04,.5003-.3108,.4603-.605Zm2-2.5967c0-.2945-.2386-.5332-.5331-.5333h-.0002l-.0039,.0008-.0069-.0008c-.1346,0-.2636,.0544-.3575,.1509-.105,.0997-.1646,.238-.1648,.3828v2.68c-.004,.2945,.2314,.5364,.5258,.5405,.2945,.004,.5364-.2314,.5405-.5258,0-.0049,0-.0097,0-.0146v-2.6804Zm1.9981,0c-.0005-.2179-.1339-.4135-.3367-.4933-.1255-.0537-.2675-.0537-.393,0-.2028,.0798-.3362,.2755-.3366,.4934v2.68c-.0002,.2944,.2383,.5333,.5327,.5335s.5333-.2383,.5335-.5327v-2.6808Zm2.3858,.08c.0399-.2941-.1661-.5648-.4602-.6047s-.5648,.1661-.6047,.4602h0l-.3915,1.525-.0021,1.1362c-.0399,.2941,.1661,.5648,.4602,.6047,.2941,.0399,.5648-.1661,.6047-.4601l.3936-2.6613Z" fill="#fff"/></svg>