<?xml version="1.0" encoding="UTF-8"?><svg id="Layer_1" xmlns="http://www.w3.org/2000/svg" width=".8819cm" height=".8819cm" viewBox="0 0 25 25"><rect y="0" width="25" height="25" fill="none"/><g><circle cx="12.5" cy="12.5002" r="11.5"/><path d="M12.5,2c5.7897,0,10.5,4.7103,10.5,10.5s-4.7103,10.5-10.5,10.5S2,18.2897,2,12.5,6.7103,2,12.5,2M12.5,0C5.5964,0,0,5.5964,0,12.5s5.5964,12.5,12.5,12.5,12.5-5.5964,12.5-12.5S19.4036,0,12.5,0h0Z" fill="#fff"/></g><path d="M15.1113,7c-.1124,0-.4355,.1465-.4355,.1465l-3.3223,1.6797c-.4424,.1762-.6177,.8819-.3515,1.2343l.9707,1.4082-3.9707,2.0293,1.998,1.5,2.502-1.5,2.5,1.5,1.002-1.002-3-4,2.5566-1.5293c.5286-.2662,.4434-.7045,.4434-.9707-.0041-.2099-.3603-.496-.8927-.496Zm2.1407,3c-.9673,0-1.752,.7827-1.752,1.75s.7847,1.752,1.752,1.752,1.75-.7847,1.75-1.752-.7828-1.75-1.75-1.75ZM7.5,15l-2.5,1.5v1.5l2.5-1.5,2.5,1.5,2.502-1.5,2.5,1.5,1.998-1.5,3,1.5v-1.5l-3-1.5-1.998,1.5-2.5-1.5-2.502,1.5-2.5-1.5Z" fill="#fff"/></svg>