<?xml version="1.0" encoding="UTF-8"?><svg id="Layer_1" xmlns="http://www.w3.org/2000/svg" width=".8819cm" height=".8819cm" viewBox="0 0 25 25"><rect y="0" width="25" height="25" fill="none"/><g><circle cx="12.5" cy="12.5002" r="11.5"/><path d="M12.5,2c5.7897,0,10.5,4.7103,10.5,10.5s-4.7103,10.5-10.5,10.5S2,18.2897,2,12.5,6.7103,2,12.5,2M12.5,0C5.5964,0,0,5.5964,0,12.5s5.5964,12.5,12.5,12.5,12.5-5.5964,12.5-12.5S19.4036,0,12.5,0h0Z" fill="#fff"/></g><path d="M12.5,5l-2,2v2h4v-2l-2-2Zm-2,4.5l-1.5,1.5h7l-1.5-1.5h-4Zm-3.5,2c-.5523,0-1,.4477-1,1v5.5h2v-5.5c0-.5523-.4477-1-1-1Zm2,0v6.5h7v-6.5h-7Zm9,0c-.5523,0-1,.4477-1,1v5.5h2v-5.5c0-.5523-.4477-1-1-1Z" fill="#fff"/></svg>