<?xml version="1.0" encoding="UTF-8"?><svg id="Layer_1" xmlns="http://www.w3.org/2000/svg" width=".8819cm" height=".8819cm" viewBox="0 0 25 25"><rect y="0" width="25" height="25" fill="none"/><g><circle cx="12.5" cy="12.5002" r="11.5"/><path d="M12.5,2c5.7897,0,10.5,4.7103,10.5,10.5s-4.7103,10.5-10.5,10.5S2,18.2897,2,12.5,6.7103,2,12.5,2M12.5,0C5.5964,0,0,5.5964,0,12.5s5.5964,12.5,12.5,12.5,12.5-5.5964,12.5-12.5S19.4036,0,12.5,0h0Z" fill="#fff"/></g><path d="M10.5,5c-1,0-2,1-2,2V15h8V7c0-1-1-2-2-2h-4Zm1,2h2v1h-2v-1Zm-2,2h6v1h-6v-1Zm1,2h4v1h-4v-1Zm-3,5l-1,1v1h12v-1l-1-1H7.5Z" fill="#fff"/></svg>