<?xml version="1.0" encoding="UTF-8"?><svg id="Layer_1" xmlns="http://www.w3.org/2000/svg" width=".8819cm" height=".8819cm" viewBox="0 0 25 25"><rect y="0" width="25" height="25" fill="none"/><g><circle cx="12.5" cy="12.5002" r="11.5"/><path d="M12.5,2c5.7897,0,10.5,4.7103,10.5,10.5s-4.7103,10.5-10.5,10.5S2,18.2897,2,12.5,6.7103,2,12.5,2M12.5,0C5.5964,0,0,5.5964,0,12.5s5.5964,12.5,12.5,12.5,12.5-5.5964,12.5-12.5S19.4036,0,12.5,0h0Z" fill="#fff"/></g><path d="M18,9h-4v-3l-1.5-1-1.5,1v3H7l-1,1v1h13v-1l-1-1Zm-5.5-2.5c.4,0,.7,.3,.7,.8s-.3,.7-.7,.7-.8-.3-.8-.8c0-.4,.4-.7,.8-.7Zm5.5,5.5H7v4l-1,1.5v1.5h13v-1.5l-1-1.5v-4Zm-8,5.5h-1v-4.5h1v4.5Zm3,0h-1v-4.5h1v4.5Zm3,0h-1v-4.5h1v4.5Z" fill="#fff"/></svg>