<?xml version="1.0" encoding="UTF-8"?><svg id="Layer_1" xmlns="http://www.w3.org/2000/svg" width=".8819cm" height=".8819cm" viewBox="0 0 25 25"><rect y="0" width="25" height="25" fill="none"/><g><circle cx="12.5" cy="12.5002" r="11.5"/><path d="M12.5,2c5.7897,0,10.5,4.7103,10.5,10.5s-4.7103,10.5-10.5,10.5S2,18.2897,2,12.5,6.7103,2,12.5,2M12.5,0C5.5964,0,0,5.5964,0,12.5s5.5964,12.5,12.5,12.5,12.5-5.5964,12.5-12.5S19.4036,0,12.5,0h0Z" fill="#fff"/></g><path d="M19,5.5019c-.6672,.0898-1.3341,.1985-2,.3027V15.6719l-.5078-.0391c-1.3153-.0938-2.7061,.5602-3.3164,1.5586-.2247,.3675-.2484,.9505-.0508,1.2676,.3085,.495,1.0411,.9093,1.8379,1.043,1.8323-.0532,3.1452-.7001,4.0352-2.0332,.002-3.9688,.002-7.9681,.002-11.9668Zm-6.8926,.0039c-2.4542-.0636-4.866,1.1844-6.1797,3.459-1.9108,3.3085-.7764,7.5391,2.5332,9.4492,.5527,.319,1.2551,.1307,1.5742-.4219,.1499-.2596,.1902-.5497,.1289-.8203-.0546-.2667-.0152-.5464,.1328-.8027,.3191-.5525,1.0215-.7409,1.5742-.4219l.252,.1445c.7225-.9525,1.8043-1.4508,2.9766-1.6719-.3728-.4417-.429-1.0695-.1406-1.5703,.1283-.2207,.3157-.4013,.541-.5215v-1.2773c-.1699-.0253-.3335-.0823-.4824-.168-.6556-.38-.8794-1.2191-.5-1.875,.2088-.3608,.5702-.6073,.9824-.6699v-1.8301c-.0406-.0244-.0779-.0524-.1191-.0762-1.0343-.5969-2.1579-.8969-3.2734-.9258Zm.1875,.9082c.2635-.0131,.5253,.05,.7539,.1816,.6572,.3786,.8829,1.2181,.5042,1.8751l-.0022,.0039c-.3793,.6566-1.2192,.8816-1.8761,.5024l-.0009-.0005c-.6563-.3794-.881-1.2186-.502-1.875,.2329-.4053,.656-.6644,1.123-.6875Zm-3.5391,1.5215c.2629-.0127,.5239,.0503,.752,.1816,.6569,.3791,.882,1.2187,.5028,1.8754l-.0009,.0015c-.3787,.6565-1.218,.8821-1.875,.5039-.6574-.3783-.8835-1.2176-.5052-1.8748l.0012-.0022c.2337-.4052,.6577-.6635,1.125-.6855Z" fill="#fff"/></svg>