<?xml version="1.0" encoding="UTF-8"?><svg id="Layer_1" xmlns="http://www.w3.org/2000/svg" width=".8819cm" height=".8819cm" viewBox="0 0 25 25"><rect y="0" width="25" height="25" fill="none"/><g><circle cx="12.5" cy="12.5002" r="11.5"/><path d="M12.5,2c5.7897,0,10.5,4.7103,10.5,10.5s-4.7103,10.5-10.5,10.5S2,18.2897,2,12.5,6.7103,2,12.5,2M12.5,0C5.5964,0,0,5.5964,0,12.5s5.5964,12.5,12.5,12.5,12.5-5.5964,12.5-12.5S19.4036,0,12.5,0h0Z" fill="#fff"/></g><path d="M6,8c-.554,0-1,.446-1,1v7c0,.554,.446,1,1,1h13c.554,0,1-.446,1-1v-7c0-.554-.446-1-1-1H6Zm0,1h1.5c.2761,0,.5,.2239,.5,.5s-.2239,.5-.5,.5-.5-.2239-.5-.5l-.5,.5c.2761,0,.5,.2239,.5,.5s-.2239,.5-.5,.5-.5-.2239-.5-.5v-1.5Zm6.5,0c1.3807,0,2.5,1.567,2.5,3.5h0c0,1.933-1.1193,3.5-2.5,3.5s-2.5-1.567-2.5-3.5,1.1193-3.5,2.5-3.5Zm5,0h1.5v1.5c0,.2761-.2239,.5-.5,.5s-.5-.2239-.5-.5,.2239-.5,.5-.5l-.5-.5c0,.2761-.2239,.5-.5,.5s-.5-.2239-.5-.5,.2239-.5,.5-.5Zm-5,1.5c-.323,0-.5336,.1088-.6816,.25h1.3633c-.1481-.1412-.3587-.25-.6817-.25Zm-.875,.5c-.0455,.091-.0617,.1711-.0801,.25h1.9102c-.0184-.0789-.0346-.159-.0801-.25h-1.75Zm-.125,.5v.25h2v-.25h-2Zm0,.5v.25h2v-.25h-2Zm0,.5v.25h2v-.25h-2Zm0,.5l-.25,.25h2l.25-.25h-2Zm-.5,.5s.0353,.1024,.1016,.25h2.2734l-.375-.25h-2Zm-4.5,.5c.2761,0,.5,.2239,.5,.5s-.2239,.5-.5,.5l.5,.5c0-.2761,.2239-.5,.5-.5s.5,.2239,.5,.5-.2239,.5-.5,.5h-1.5v-1.5c0-.2761,.2239-.5,.5-.5Zm4.7383,0c.0459,.0856,.0761,.159,.1367,.25h2.2676c.0666-.1379,.1074-.25,.1074-.25h-2.5117Zm7.2617,0c.2761,0,.5,.2239,.5,.5v1.5h-1.5c-.2761,0-.5-.2239-.5-.5s.2239-.5,.5-.5,.5,.2239,.5,.5l.5-.5c-.2761,0-.5-.2239-.5-.5s.2239-.5,.5-.5Zm-6.9336,.5c.0786,.0912,.1647,.1763,.2598,.25h1.4199c.1001-.0773,.1877-.1617,.2539-.25h-1.9336Z" fill="#fff"/></svg>