<?xml version="1.0" encoding="UTF-8"?><svg id="Layer_1" xmlns="http://www.w3.org/2000/svg" width=".8819cm" height=".8819cm" viewBox="0 0 25 25"><rect y="0" width="25" height="25" fill="none"/><g><circle cx="12.5" cy="12.5002" r="11.5"/><path d="M12.5,2c5.7897,0,10.5,4.7103,10.5,10.5s-4.7103,10.5-10.5,10.5S2,18.2897,2,12.5,6.7103,2,12.5,2M12.5,0C5.5964,0,0,5.5964,0,12.5s5.5964,12.5,12.5,12.5,12.5-5.5964,12.5-12.5S19.4036,0,12.5,0h0Z" fill="#fff"/></g><path d="M12.5,6c-2,0-7,.25-6.5,.75l6,6.25v4c0,1-3,.5-3,2h7c0-1.5-3-1-3-2v-4l6-6.25c.5-.5-4.5-.75-6.5-.75Zm0,1c2.5,0,4.75,.25,4.75,.25l-.75,.75H8.5l-.75-.75s2.25-.25,4.75-.25Z" fill="#fff"/></svg>