<?xml version="1.0" encoding="UTF-8"?><svg id="Layer_1" xmlns="http://www.w3.org/2000/svg" width=".8819cm" height=".8819cm" viewBox="0 0 25 25"><rect y="0" width="25" height="25" fill="none"/><g><circle cx="12.5" cy="12.5002" r="11.5"/><path d="M12.5,2c5.7897,0,10.5,4.7103,10.5,10.5s-4.7103,10.5-10.5,10.5S2,18.2897,2,12.5,6.7103,2,12.5,2M12.5,0C5.5964,0,0,5.5964,0,12.5s5.5964,12.5,12.5,12.5,12.5-5.5964,12.5-12.5S19.4036,0,12.5,0h0Z" fill="#fff"/></g><path d="M12.5,7c-.6761-.01-.6761,1.0096,0,1h1.5v1.2656l-2.8027,2.334-.9747-2.5996h.2774c.6761,.01,.6761-1.0096,0-1h-2c-.6761-.01-.6761,1.0096,0,1h.6523l.8907,2.375c-.4678-.2326-.9871-.375-1.543-.375-1.9271,0-3.5,1.5729-3.5,3.5s1.5729,3.5,3.5,3.5,3.5-1.5729,3.5-3.5c0-.6699-.2003-1.2911-.5293-1.8242l2.8203-2.3496,.4629,1.1602c-1.0425,.6073-1.7539,1.7248-1.7539,3.0136,0,1.9271,1.5729,3.5,3.5,3.5s3.5-1.5729,3.5-3.5-1.5729-3.5-3.5-3.5c-.2831,0-.5544,.0434-.8184,.1074l-.6816-1.7051v-1.9023c0-.2761-.2239-.5-.5-.5h-2Zm-4,5c.5923,0,1.1276,.2119,1.5547,.5527l-1.875,1.5625c-.5109,.4273,.1278,1.1945,.6406,.7695l1.875-1.5625c.1882,.3518,.3047,.7489,.3047,1.1778,0,1.3866-1.1134,2.5-2.5,2.5s-2.5-1.1134-2.5-2.5,1.1133-2.5,2.5-2.5h0Zm8,0c1.3866,0,2.5,1.1134,2.5,2.5s-1.1134,2.5-2.5,2.5-2.5-1.1134-2.5-2.5c0-.877,.4468-1.6421,1.125-2.0879l.9102,2.2734c.246,.6231,1.1804,.2501,.9297-.3711l-.9082-2.2695c.1442-.0256,.2914-.0449,.4433-.0449h0Z" fill="#fff"/></svg>