<?xml version="1.0" encoding="UTF-8"?><svg id="Layer_1" xmlns="http://www.w3.org/2000/svg" width=".8819cm" height=".8819cm" viewBox="0 0 25 25"><rect y="0" width="25" height="25" fill="none"/><g><circle cx="12.5" cy="12.5002" r="11.5"/><path d="M12.5,2c5.7897,0,10.5,4.7103,10.5,10.5s-4.7103,10.5-10.5,10.5S2,18.2897,2,12.5,6.7103,2,12.5,2M12.5,0C5.5964,0,0,5.5964,0,12.5s5.5964,12.5,12.5,12.5,12.5-5.5964,12.5-12.5S19.4036,0,12.5,0h0Z" fill="#fff"/></g><path d="M17.5,10h-2v-2H7.5v4c.0133,2.2091,1.8149,3.9891,4.024,3.9758,1.4105-.0085,2.7122-.7592,3.426-1.9758h2.55c1.1046,0,2-.8954,2-2s-.8954-2-2-2Zm0,3h-2.14c.0887-.3261,.1358-.6621,.14-1v-1h2c.5523,0,1,.4477,1,1s-.4477,1-1,1Zm-2,4.5c0,.2761-.2239,.5-.5,.5h-7c-.2761,0-.5-.2239-.5-.5s.2239-.5,.5-.5h7c.2761,0,.5,.2239,.5,.5Z" fill="#fff"/></svg>