<?xml version="1.0" encoding="UTF-8"?><svg id="Layer_1" xmlns="http://www.w3.org/2000/svg" width=".8819cm" height=".8819cm" viewBox="0 0 25 25"><rect y="0" width="25" height="25" fill="none"/><g><circle cx="12.5" cy="12.5002" r="11.5"/><path d="M12.5,2c5.7897,0,10.5,4.7103,10.5,10.5s-4.7103,10.5-10.5,10.5S2,18.2897,2,12.5,6.7103,2,12.5,2M12.5,0C5.5964,0,0,5.5964,0,12.5s5.5964,12.5,12.5,12.5,12.5-5.5964,12.5-12.5S19.4036,0,12.5,0h0Z" fill="#fff"/></g><path d="M19,12.5v2c0,.2761-.2239,.5-.5,.5s-.5-.2239-.5-.5c0,0,.06-.5-1-.5h-1v2.5c0,.2761-.2239,.5-.5,.5H7.5c-.2761,0-.5-.2239-.5-.5v-4c0-.2761,.2239-.5,.5-.5H15.5c.2761,0,.5,.2239,.5,.5v.5h1c1.06,0,1-.5,1-.5,0-.2761,.2239-.5,.5-.5s.5,.2239,.5,.5ZM9,8c-1.1046,0-2,.8954-2,2s.8954,2,2,2,2-.8954,2-2-.8954-2-2-2Zm0,3c-.5523,0-1-.4477-1-1s.4477-1,1-1,1,.4477,1,1-.4477,1-1,1Zm4.5-4c-1.3807,0-2.5,1.1193-2.5,2.5s1.1193,2.5,2.5,2.5,2.5-1.1193,2.5-2.5-1.1193-2.5-2.5-2.5Zm0,4c-.8284,0-1.5-.6716-1.5-1.5s.6716-1.5,1.5-1.5,1.5,.6716,1.5,1.5-.6716,1.5-1.5,1.5Z" fill="#fff"/></svg>