<?xml version="1.0" encoding="UTF-8"?><svg id="Layer_1" xmlns="http://www.w3.org/2000/svg" width=".8819cm" height=".8819cm" viewBox="0 0 25 25"><rect y="0" width="25" height="25" fill="none"/><g><circle cx="12.5" cy="12.5002" r="11.5"/><path d="M12.5,2c5.7897,0,10.5,4.7103,10.5,10.5s-4.7103,10.5-10.5,10.5S2,18.2897,2,12.5,6.7103,2,12.5,2M12.5,0C5.5964,0,0,5.5964,0,12.5s5.5964,12.5,12.5,12.5,12.5-5.5964,12.5-12.5S19.4036,0,12.5,0h0Z" fill="#fff"/></g><path d="M9.36,19c-1,0-.56-2.67-.86-5-.1-.76-1-1.49-1.12-2.06-.38-1.94-.99-5.5,1.28-5.94,2.27-.44,2.34,2,3.88,2s1.57-2.36,3.85-2,1.59,3.9,1.29,5.9c-.1,.45-1.1,1.48-1.18,2.06-.33,2.4,.32,5-.8,5-.93,0-1.32-2.72-2-4.5-.27-.83-.64-1.46-1.16-1.46-1.54,0-1.79,6-3.18,6Z" fill="#fff"/></svg>