<?xml version="1.0" encoding="UTF-8"?><svg id="Layer_1" xmlns="http://www.w3.org/2000/svg" width=".8819cm" height=".8819cm" viewBox="0 0 25 25"><rect y="0" width="25" height="25" fill="none"/><g><circle cx="12.5" cy="12.5002" r="11.5"/><path d="M12.5,2c5.7897,0,10.5,4.7103,10.5,10.5s-4.7103,10.5-10.5,10.5S2,18.2897,2,12.5,6.7103,2,12.5,2M12.5,0C5.5964,0,0,5.5964,0,12.5s5.5964,12.5,12.5,12.5,12.5-5.5964,12.5-12.5S19.4036,0,12.5,0h0Z" fill="#fff"/></g><path d="M12.5,5.5c-1.1607,0-2.3322,.5047-3.125,1.5-.6875,.863-.875,1.5-.9688,2.5-2.8962,.0238-2.9062,1.0817-2.9062,8h14c0-6.9183-.0101-7.9762-2.9062-8-.0938-1-.2982-1.6539-.9688-2.5-.7903-.9973-1.9643-1.5-3.125-1.5Zm0,2c1.2814-.0049,2,1,2.0625,2h-4.125c.0625-1,.7811-1.9951,2.0625-2Zm-1,3h2v2h2v2h-2v2h-2v-2h-2v-2h2v-2Z" fill="#fff"/></svg>