<?xml version="1.0" encoding="UTF-8"?><svg id="Layer_1" xmlns="http://www.w3.org/2000/svg" width=".8819cm" height=".8819cm" viewBox="0 0 25 25"><rect y="0" width="25" height="25" fill="none"/><g><circle cx="12.5" cy="12.5002" r="11.5"/><path d="M12.5,2c5.7897,0,10.5,4.7103,10.5,10.5s-4.7103,10.5-10.5,10.5S2,18.2897,2,12.5,6.7103,2,12.5,2M12.5,0C5.5964,0,0,5.5964,0,12.5s5.5964,12.5,12.5,12.5,12.5-5.5964,12.5-12.5S19.4036,0,12.5,0h0Z" fill="#fff"/></g><path d="M11,6c-1.1046,0-2,.8954-2,2v3.5c0,.2761,.2239,.5,.5,.5h2c.2761,0,.5-.2239,.5-.5v-2c0-.2761,.2239-.5,.5-.5h6.5v-3H11Zm1,14h-3c-.2279-.0025-.4253-.1587-.48-.38l-1.52-6c-.0666-.268,.0966-.5392,.3646-.6059h.0004c.0443-.0103,.0896-.015,.135-.0141h6c.2758-.0078,.5058,.2092,.514,.485,.0019,.0454-.0028,.0909-.014,.135l-1.5,6c-.0564,.2286-.2647,.3869-.5,.38Zm-3.35-4h3.71l.5-2h-4.72l.51,2Z" fill="#fff"/></svg>