<?xml version="1.0" encoding="UTF-8"?><svg id="Layer_1" xmlns="http://www.w3.org/2000/svg" width=".8819cm" height=".8819cm" viewBox="0 0 25 25"><rect y="0" width="25" height="25" fill="none"/><g><circle cx="12.5" cy="12.5" r="11.5"/><path d="M12.5,2c5.8,0,10.5,4.7,10.5,10.5s-4.7,10.5-10.5,10.5S2,18.3,2,12.5,6.7,2,12.5,2M12.5,0C5.6,0,0,5.6,0,12.5s5.6,12.5,12.5,12.5,12.5-5.6,12.5-12.5S19.4,0,12.5,0h0Z" fill="#fff"/></g><path d="M12.5,5.5c-3.9,0-7,3.1-7,7s3.1,7,7,7,7-3.1,7-7-3.1-7-7-7Zm-1,3h2v3h3v2h-3v3h-2v-3h-3v-2h3v-3Z" fill="#fff"/></svg>