<?xml version="1.0" encoding="UTF-8"?><svg id="Layer_1" xmlns="http://www.w3.org/2000/svg" width=".8819cm" height=".8819cm" viewBox="0 0 25 25"><rect y="0" width="25" height="25" fill="none"/><g><circle cx="12.5" cy="12.5002" r="11.5"/><path d="M12.5,2c5.7897,0,10.5,4.7103,10.5,10.5s-4.7103,10.5-10.5,10.5S2,18.2897,2,12.5,6.7103,2,12.5,2M12.5,0C5.5964,0,0,5.5964,0,12.5s5.5964,12.5,12.5,12.5,12.5-5.5964,12.5-12.5S19.4036,0,12.5,0h0Z" fill="#fff"/></g><path d="M10.44,13.17c.7157,.0011,1.4142-.219,2-.63,.4639,.323,.9992,.5289,1.56,.6h.44l-1.44,5.56c-.1082,.2541-.4019,.3723-.656,.264-.1188-.0506-.2134-.1452-.264-.264l-1.64-5.53Zm6-3.473c0,1.1046-.8954,2-2,2s-2-.8954-2-2h0c0,1.1046-.8954,2-2,2s-2-.8954-2-2,.8954-2,2-2h.12c-.3844-1.0355,.1435-2.1866,1.179-2.571s2.1866,.1435,2.571,1.179c.1667,.449,.1667,.9429,0,1.3919h.13c1.1046,.0006,1.9996,.8964,1.999,2.001v.002l.001-.003Z" fill="#fff"/></svg>