<?xml version="1.0" encoding="UTF-8"?><svg id="Layer_1" xmlns="http://www.w3.org/2000/svg" width=".8819cm" height=".8819cm" viewBox="0 0 25 25"><rect y="0" width="25" height="25" fill="none"/><g><circle cx="12.5" cy="12.5002" r="11.5"/><path d="M12.5,2c5.7897,0,10.5,4.7103,10.5,10.5s-4.7103,10.5-10.5,10.5S2,18.2897,2,12.5,6.7103,2,12.5,2M12.5,0C5.5964,0,0,5.5964,0,12.5s5.5964,12.5,12.5,12.5,12.5-5.5964,12.5-12.5S19.4036,0,12.5,0h0Z" fill="#fff"/></g><path d="M6.0819,14.9388c-.0948-.0718-.0812-.1909-.0812-.1909l.5252-6.2479s.0082-.0688,.0388-.104c.0193-.022,.0437-.054,.0897-.0728,.5282-.216,3.3993-1.7713,4.8456-.3232,.2397,.2777,.4999,.6876,.4999,1v5.2879s.0062,.1122-.0953,.1801c-.0239,.016-.124,.0616-.242,.0026-2.2253-1.1134-4.711,.1546-5.3381,.4871-.1258,.0667-.2239-.0046-.2426-.0189Zm12.5935,.0189c-.6271-.3325-3.1128-1.6005-5.3381-.4871-.118,.059-.2181,.0134-.242-.0026-.1014-.0679-.0952-.1801-.0952-.1801v-5.2879c0-.3124,.2602-.7223,.4999-1,1.4463-1.4481,4.2991,.1071,4.8273,.3232,.046,.0188,.0704,.0508,.0897,.0728,.0306,.0352,.0388,.104,.0388,.104l.5435,6.2479s.0136,.1191-.0812,.1909c-.0187,.0143-.1168,.0856-.2427,.0189Zm-4.8107,2.7286c.0352-.0085,.0964-.0443,.1179-.0775,.0236-.0364,.0378-.0617,.0423-.1088,.0495-.9379,1.6245-1.8119,4.6477-.0298,.0775,.0441,.1666,.0396,.2425-.0155,.0863-.0627,.0849-.1688,.0849-.1688v-.5542s.0003-.0764-.0272-.1184c-.0205-.0312-.0476-.0643-.0926-.0858-2.0254-1.3145-4.5858-1.8972-5.8854-.1592-.0181,.0423-.0353,.0613-.0728,.0905-.0566,.044-.1256,.0412-.1256,.0412h-.5855s-.069,.0028-.1256-.0412c-.0375-.0292-.0547-.0482-.0728-.0905-1.2996-1.738-3.86-1.1828-5.8854,.1317-.045,.0215-.0721,.0546-.0926,.0858-.0275,.042-.0272,.1184-.0272,.1184v.5542s-.0014,.1061,.0849,.1688c.0759,.0551,.165,.0596,.2425,.0155,3.0232-1.7821,4.5982-.8806,4.6477,.0573,.0045,.0471,.0187,.0724,.0423,.1088,.0215,.0332,.0827,.069,.1179,.0775,.7219,.1793,1.7686,.25,2.7221,0Z" fill="#fff"/></svg>