<?xml version="1.0" encoding="UTF-8"?><svg id="Layer_1" xmlns="http://www.w3.org/2000/svg" width=".8819cm" height=".8819cm" viewBox="0 0 25 25"><rect y="0" width="25" height="25" fill="none"/><g><circle cx="12.5" cy="12.5002" r="11.5"/><path d="M12.5,2c5.7897,0,10.5,4.7103,10.5,10.5s-4.7103,10.5-10.5,10.5S2,18.2897,2,12.5,6.7103,2,12.5,2M12.5,0C5.5964,0,0,5.5964,0,12.5s5.5964,12.5,12.5,12.5,12.5-5.5964,12.5-12.5S19.4036,0,12.5,0h0Z" fill="#fff"/></g><path d="M9.5,9l-2,2v8h10V11l-2-2h-6Zm2,2h2v2h2v2h-2v2h-2v-2h-2v-2h2v-2Zm-2-6v3h6v-3h-6Z" fill="#fff"/></svg>