<?xml version="1.0" encoding="UTF-8"?><svg id="Layer_1" xmlns="http://www.w3.org/2000/svg" width=".8819cm" height=".8819cm" viewBox="0 0 25 25"><rect y="0" width="25" height="25" fill="none"/><g><circle cx="12.5" cy="12.5002" r="11.5"/><path d="M12.5,2c5.7897,0,10.5,4.7103,10.5,10.5s-4.7103,10.5-10.5,10.5S2,18.2897,2,12.5,6.7103,2,12.5,2M12.5,0C5.5964,0,0,5.5964,0,12.5s5.5964,12.5,12.5,12.5,12.5-5.5964,12.5-12.5S19.4036,0,12.5,0h0Z" fill="#fff"/></g><path d="M8.5,5l-1,5.5c-.1464,.805,1.7815,1.181,1.75,2l-.25,6.5c-.0384,.9993,1,1,1,1,0,0,1.0384-.0007,1-1l-.25-6.5c-.0314-.8176,1.7334-1.1808,1.75-2l-1-5.5h-.5l.25,4-.75,.5-.25-4.5h-.5l-.25,4.5-.75-.5,.25-4h-.5Zm8.5,0c-.7364,0-1.9642,.6549-2.4551,1.6367-.4091,.7364-.5449,2.3815-.5449,3.3633v2.5c0,.8182,1.0909,1,1.5,1l-.5,5.5c-.0905,.9959,1,1,1,1,0,0,1,0,1-1V5Z" fill="#fff"/></svg>