<?xml version="1.0" encoding="UTF-8"?><svg id="Layer_1" xmlns="http://www.w3.org/2000/svg" width=".8819cm" height=".8819cm" viewBox="0 0 25 25"><rect y="0" width="25" height="25" fill="none"/><g><circle cx="12.5" cy="12.5002" r="11.5"/><path d="M12.5,2c5.7897,0,10.5,4.7103,10.5,10.5s-4.7103,10.5-10.5,10.5S2,18.2897,2,12.5,6.7103,2,12.5,2M12.5,0C5.5964,0,0,5.5964,0,12.5s5.5964,12.5,12.5,12.5,12.5-5.5964,12.5-12.5S19.4036,0,12.5,0h0Z" fill="#fff"/></g><path d="M9.51,13.88c-.1983,.199-.1983,.521,0,.72l.72,.72-2.16,2.18-.37-.37c-.4028-.3774-.652-.8902-.7-1.44v-1.45c.0456-.5534,.295-1.0701,.7-1.45l5.07-5.07c.3767-.4124,.8938-.6692,1.45-.72h1.45c.5562,.0508,1.0733,.3076,1.45,.72l.36,.36-2.17,2.18-.73-.73c-.199-.1983-.521-.1983-.72,0l-4.35,4.35Zm-.38,4.72c.3804,.4004,1.0133,.4166,1.4137,.0363,.0124-.0118,.0245-.0239,.0363-.0363l.72-.72c.4004-.3804,.4166-1.0133,.0363-1.4137-.0118-.0124-.0239-.0245-.0363-.0363l-2.17,2.17Zm7.25-7.28c.3804,.4004,1.0133,.4166,1.4137,.0363,.0124-.0118,.7563-.7563,.7563-.7563,.4004-.3804,.4166-1.0133,.0363-1.4137-.0118-.0124-.0239-.0245-.0363-.0363l-2.17,2.17Z" fill="#fff"/></svg>