<?xml version="1.0" encoding="UTF-8"?><svg id="Layer_1" xmlns="http://www.w3.org/2000/svg" width=".8819cm" height=".8819cm" viewBox="0 0 25 25"><rect y="0" width="25" height="25" fill="none"/><g><circle cx="12.5" cy="12.5002" r="11.5"/><path d="M12.5,2c5.7897,0,10.5,4.7103,10.5,10.5s-4.7103,10.5-10.5,10.5S2,18.2897,2,12.5,6.7103,2,12.5,2M12.5,0C5.5964,0,0,5.5964,0,12.5s5.5964,12.5,12.5,12.5,12.5-5.5964,12.5-12.5S19.4036,0,12.5,0h0Z" fill="#fff"/></g><path d="M10.4391,5.125c-1.4191,0-1.6452,1.9305-1.2812,2.9063,.2309,.623,.9344,1.2248,1.6562,.9688,.9335-.4615,1.1973-1.645,.9375-2.5625-.126-.6112-.6136-1.3125-1.3125-1.3125Zm3.9688,0c-.6989,0-1.1865,.7013-1.3125,1.3125-.2598,.9175,.004,2.101,.9375,2.5625,.7219,.256,1.4253-.3458,1.6562-.9688,.3639-.9758,.1379-2.9063-1.2812-2.9063Zm-8.0328,3.0938c-.5606,.5606-.4872,2.1738,.5312,2.8438,.6601,.3384,1.33-.0991,1.5625-.625,.3926-.7469,.2847-1.8085-.4062-2.3438-.6614-.4414-1.1694-.3931-1.6875,.125Zm10.5625-.125c-.4822,.2784-.7989,1.5969-.4062,2.3438,.2325,.5259,.9337,.9634,1.5938,.625,1.0184-.67,1.0715-2.2722,.5-2.8438-.5319-.4453-1.1616-.4286-1.6875-.125Zm-4.4375,1.4062c-2.4853,0-4.5,2.0147-4.5,4.5s2.0147,4.5,4.5,4.5,4.5-2.0147,4.5-4.5-2.0147-4.5-4.5-4.5Zm-1,1.5h2v2h2v2l-2,.0312v1.9688h-2v-2h-2v-2h2v-2Z" fill="#fff"/></svg>