<?xml version="1.0" encoding="UTF-8"?><svg id="Layer_1" xmlns="http://www.w3.org/2000/svg" width=".8819cm" height=".8819cm" viewBox="0 0 25 25"><rect y="0" width="25" height="25" fill="none"/><g><circle cx="12.5" cy="12.5002" r="11.5"/><path d="M12.5,2c5.7897,0,10.5,4.7103,10.5,10.5s-4.7103,10.5-10.5,10.5S2,18.2897,2,12.5,6.7103,2,12.5,2M12.5,0C5.5964,0,0,5.5964,0,12.5s5.5964,12.5,12.5,12.5,12.5-5.5964,12.5-12.5S19.4036,0,12.5,0h0Z" fill="#fff"/></g><path d="M17.41,10.58l-1.34,8c-.0433,.2368-.2493,.4091-.49,.41h-6.16c-.2407-.0009-.4467-.1732-.49-.41l-1.34-8c-.0442-.2726,.141-.5294,.4135-.5736,.0253-.0041,.0509-.0062,.0765-.0064h8.83c.2761-.0036,.5028,.2174,.5064,.4935,.0004,.029-.0018,.0579-.0064,.0865Zm.59-2.08c0,.2761-.2239,.5-.5,.5H7.5c-.2761,0-.5-.2239-.5-.5s.2239-.5,.5-.5h2.5v-1.5c0-.2761,.2239-.5,.5-.5h4c.2761,0,.5,.2239,.5,.5v1.5h2.5c.2761,0,.5,.2239,.5,.5Zm-4-.5v-1h-3v1h3Z" fill="#fff"/></svg>