<?xml version="1.0" encoding="UTF-8"?><svg id="Layer_1" xmlns="http://www.w3.org/2000/svg" width=".8819cm" height=".8819cm" viewBox="0 0 25 25"><rect y="0" width="25" height="25" fill="none"/><g><circle cx="12.5" cy="12.5002" r="11.5"/><path d="M12.5,2c5.7897,0,10.5,4.7103,10.5,10.5s-4.7103,10.5-10.5,10.5S2,18.2897,2,12.5,6.7103,2,12.5,2M12.5,0C5.5964,0,0,5.5964,0,12.5s5.5964,12.5,12.5,12.5,12.5-5.5964,12.5-12.5S19.4036,0,12.5,0h0Z" fill="#fff"/></g><path d="M18,9v-1.51c-.0054-.2722-.2277-.4901-.5-.49-.2816,.0047-.5062,.2367-.5015,.5184l.0015,.0316v2.45c0,.5523,.4477,1,1,1v5.5c0,.2761-.2239,.5-.5,.5s-.5-.2239-.5-.5v-2c0-.8284-.6716-1.5-1.5-1.5h-1.5V7c0-.5523-.4477-1-1-1H7c-.5523,0-1,.4477-1,1v11c0,.5523,.4477,1,1,1h6c.5523,0,1-.4477,1-1v-4h1.5c.2761,0,.5,.2239,.5,.5v2c0,.8284,.6716,1.5,1.5,1.5s1.5-.6716,1.5-1.5v-6.5c0-.5523-.4477-1-1-1Zm-5.7996,3.3995l-2.6006,3.4674-.0164-.0072c-.0465,.0787-.1167,.1403-.2146,.1403-.1476,0-.2672-.1196-.2672-.2672,0-.028,.0217-.0463,.0297-.0717l-.0177-.0078,.7766-2.3245c.054-.1617-.0664-.3288-.2369-.3288h-1.6539c-.2058,0-.3232-.2349-.1998-.3995l2.6006-3.4674,.0164,.0072c.0465-.0787,.1167-.1403,.2146-.1403,.1476,0,.2672,.1196,.2672,.2672,0,.028-.0217,.0463-.0297,.0717l.0176,.0078-.7764,2.3244c-.0541,.1618,.0663,.3289,.2368,.3289h1.6539c.2058,0,.3232,.2349,.1998,.3995Z" fill="#fff"/></svg>