<?xml version="1.0" encoding="UTF-8"?><svg id="Layer_1" xmlns="http://www.w3.org/2000/svg" width=".8819cm" height=".8819cm" viewBox="0 0 25 25"><rect y="0" width="25" height="25" fill="none"/><g><circle cx="12.5" cy="12.5002" r="11.5"/><path d="M12.5,2c5.7897,0,10.5,4.7103,10.5,10.5s-4.7103,10.5-10.5,10.5S2,18.2897,2,12.5,6.7103,2,12.5,2M12.5,0C5.5964,0,0,5.5964,0,12.5s5.5964,12.5,12.5,12.5,12.5-5.5964,12.5-12.5S19.4036,0,12.5,0h0Z" fill="#fff"/></g><path d="M12.5,6l-7.5,3.5,2,.9v1.7c-.6,.2-1,.8-1,1.4s.4,1.2,1,1.4v.1l-.9,2.1c-.3,.9-.1,1.9,1.4,1.9s1.7-1,1.4-1.9l-.9-2.1c.6-.3,1-.8,1-1.5s-.4-1.2-1-1.4v-1.2l4.5,2.1,7.5-3.5-7.5-3.5Zm4.4,6.5l-4.5,2-2.4-1.1v.1c0,.7-.3,1.3-.8,1.8l.6,1.4v.1c.1,.4,.2,.8,.1,1.2,.7,.3,1.5,.5,2.5,.5,3.3,0,4.5-2,4.5-3v-3h0Z" fill="#fff"/></svg>