<?xml version="1.0" encoding="UTF-8"?><svg id="Layer_1" xmlns="http://www.w3.org/2000/svg" width=".8819cm" height=".8819cm" viewBox="0 0 25 25"><rect y="0" width="25" height="25" fill="none"/><g><circle cx="12.5" cy="12.5002" r="11.5"/><path d="M12.5,2c5.7897,0,10.5,4.7103,10.5,10.5s-4.7103,10.5-10.5,10.5S2,18.2897,2,12.5,6.7103,2,12.5,2M12.5,0C5.5964,0,0,5.5964,0,12.5s5.5964,12.5,12.5,12.5,12.5-5.5964,12.5-12.5S19.4036,0,12.5,0h0Z" fill="#fff"/></g><path d="M19,13c0,.5523-.4477,1-1,1H7c-.5523,0-1-.4477-1-1s.4477-1,1-1h11c.5523,0,1,.4477,1,1Zm-10.5,2h-1.5c0,1.6569,1.3431,3,3,3h5c1.6569,0,3-1.3431,3-3H8.5Zm-.5-4h-1v-2c0-1.1046,.8954-2,2-2h7c1.1046,0,2,.8954,2,2v2H8Zm8-1.5c0,.2761,.2239,.5,.5,.5s.5-.2239,.5-.5-.2239-.5-.5-.5-.5,.2239-.5,.5Zm-2-1c0,.2761,.2239,.5,.5,.5s.5-.2239,.5-.5-.2239-.5-.5-.5-.5,.2239-.5,.5Zm-2,1c0,.2761,.2239,.5,.5,.5s.5-.2239,.5-.5-.2239-.5-.5-.5-.5,.2239-.5,.5Zm-2-1c0,.2761,.2239,.5,.5,.5s.5-.2239,.5-.5-.2239-.5-.5-.5-.5,.2239-.5,.5Zm-2,1c0,.2761,.2239,.5,.5,.5s.5-.2239,.5-.5-.2239-.5-.5-.5-.5,.2239-.5,.5Z" fill="#fff"/></svg>