<?xml version="1.0" encoding="utf-8"?>
<!-- Generator: Adobe Illustrator 26.3.1, SVG Export Plug-In . SVG Version: 6.00 Build 0)  -->
<svg version="1.1" id="Layer_1" xmlns="http://www.w3.org/2000/svg" xmlns:xlink="http://www.w3.org/1999/xlink" x="0px" y="0px"
	 width="25px" height="25px" viewBox="0 0 25 25" style="enable-background:new 0 0 25 25;" xml:space="preserve">
<style type="text/css">
	.st0{fill:#FFFDFD;}
	.st1{fill:#FFFFFF;}
</style>
<g>
	<circle cx="12.5" cy="12.5" r="11.5"/>
	<path class="st0" d="M12.5,2C18.3,2,23,6.7,23,12.5S18.3,23,12.5,23S2,18.3,2,12.5S6.7,2,12.5,2 M12.5,0C5.6,0,0,5.6,0,12.5
		S5.6,25,12.5,25S25,19.4,25,12.5S19.4,0,12.5,0L12.5,0z"/>
</g>
<path class="st1" d="M5.5,16h14c-1,2-5,3-7,3S6.8,18,5.5,16z M14.5,5.1c-1,0-1.7,1-2,1.8c-0.3-0.8-1-1.9-2-1.9c-1.5,0-2,1.9-2,2.9
	s1,0.7,1,0c1-2,2-1.6,2.2,1.5v0.3c-0.4-0.2-0.8-0.3-1.2-0.3c-1.5,0-2.8,1-2.8,3v1c0,1,1.5,1,1.5,0v-1c0-1,0.7-1.5,1.2-1.5
	c0.5,0,1.2,0.5,1.2,1.4v0V15c0.8-0.6,0.8-0.6,1.5,0l0-2.4v-0.1c0-0.9,0.7-1.4,1.2-1.4c0.6,0,1.2,0.5,1.2,1.5v1c0,1,1.5,1,1.5,0v-1
	c0-2-1.3-3-2.8-3c-0.4,0-0.9,0.1-1.2,0.3c0-0.1,0-0.2,0-0.3C13.5,6.8,14.5,6,15.5,8c0,0.5,1,0.9,1-0.1S16,5.1,14.5,5.1z"/>
</svg>
