<?xml version="1.0" encoding="UTF-8"?><svg id="Layer_1" xmlns="http://www.w3.org/2000/svg" width=".8819cm" height=".8819cm" viewBox="0 0 25 25"><rect y="0" width="25" height="25" fill="none"/><g><circle cx="12.5" cy="12.5002" r="11.5"/><path d="M12.5,2c5.7897,0,10.5,4.7103,10.5,10.5s-4.7103,10.5-10.5,10.5S2,18.2897,2,12.5,6.7103,2,12.5,2M12.5,0C5.5964,0,0,5.5964,0,12.5s5.5964,12.5,12.5,12.5,12.5-5.5964,12.5-12.5S19.4036,0,12.5,0h0Z" fill="#fff"/></g><path d="M18.5,6c-.0804,.0008-.1594,.0214-.23,.06l-8.77,2.44c-.2761,0-.5,.2239-.5,.5v6.28c-.3029-.1798-.6478-.2763-1-.28-1.1046,0-2,.8954-2,2s.8954,2,2,2,2-.8954,2-2v-4.64l8-2.22v3.64c-.3029-.1798-.6478-.2763-1-.28-1.1046,0-2,.8954-2,2s.8954,2,2,2,2-.8954,2-2V6.5c0-.2761-.2239-.5-.5-.5Zm-.5,3.14l-8,2.22v-2l8-2.22v2Z" fill="#fff"/></svg>