<?xml version="1.0" encoding="UTF-8"?><svg id="Layer_1" xmlns="http://www.w3.org/2000/svg" width=".8819cm" height=".8819cm" viewBox="0 0 25 25"><rect y="0" width="25" height="25" fill="none"/><g><circle cx="12.5" cy="12.5002" r="11.5"/><path d="M12.5,2c5.7897,0,10.5,4.7103,10.5,10.5s-4.7103,10.5-10.5,10.5S2,18.2897,2,12.5,6.7103,2,12.5,2M12.5,0C5.5964,0,0,5.5964,0,12.5s5.5964,12.5,12.5,12.5,12.5-5.5964,12.5-12.5S19.4036,0,12.5,0h0Z" fill="#fff"/></g><path d="M16.85,13.37c-.9532,.7086-2.1239,1.0623-3.31,1h-2.75v4.63h-2.79V6h5.72c1.1305-.0605,2.244,.2952,3.13,1,.8321,.8147,1.2543,1.9601,1.15,3.12,.1271,1.2014-.2955,2.3959-1.15,3.25Zm-2.1-4.67c-.4246-.3108-.9448-.463-1.47-.43h-2.49v3.82h2.49c.5315,.0326,1.056-.1351,1.47-.47,.3795-.3947,.5693-.9346,.52-1.48,.054-.534-.1373-1.0637-.52-1.44Z" fill="#fff"/></svg>