<?xml version="1.0" encoding="UTF-8"?><svg id="Layer_1" xmlns="http://www.w3.org/2000/svg" width=".8819cm" height=".8819cm" viewBox="0 0 25 25"><rect y="0" width="25" height="25" fill="none"/><g><circle cx="12.5" cy="12.5002" r="11.5"/><path d="M12.5,2c5.7897,0,10.5,4.7103,10.5,10.5s-4.7103,10.5-10.5,10.5S2,18.2897,2,12.5,6.7103,2,12.5,2M12.5,0C5.5964,0,0,5.5964,0,12.5s5.5964,12.5,12.5,12.5,12.5-5.5964,12.5-12.5S19.4036,0,12.5,0h0Z" fill="#fff"/></g><path d="M10.5,6l.5,1h5l.5-1h-6Zm.5,1.5v1.25s0,2.75,2.5,2.75,2.5-2.75,2.5-2.75v-1.25h-5Zm-4.0156,1.4863c-.5515,.0086-.992,.4622-.9844,1.0137v4c-.0001,.6398,.5922,1.1152,1.2168,.9766l2.7832-.6192v4.6426l5.8789-6.9297c-.1398-.0409-.2842-.0703-.4375-.0703h-3.9414l-3.5,.7539v-2.7539c.0077-.5638-.4519-1.0225-1.0156-1.0137Zm9.7636,3.7246l-5.3359,6.2891h5.5879v-5.4414c0-.3135-.0939-.6038-.252-.8477Z" fill="#fff"/></svg>