<?xml version="1.0" encoding="UTF-8"?><svg id="Layer_1" xmlns="http://www.w3.org/2000/svg" width=".8819cm" height=".8819cm" viewBox="0 0 25 25"><rect y="0" width="25" height="25" fill="none"/><g><circle cx="12.5" cy="12.5002" r="11.5"/><path d="M12.5,2c5.7897,0,10.5,4.7103,10.5,10.5s-4.7103,10.5-10.5,10.5S2,18.2897,2,12.5,6.7103,2,12.5,2M12.5,0C5.5964,0,0,5.5964,0,12.5s5.5964,12.5,12.5,12.5,12.5-5.5964,12.5-12.5S19.4036,0,12.5,0h0Z" fill="#fff"/></g><path d="M19,11.5v5.5c0,.5523-.4477,1-1,1H7c-.5523,0-1-.4477-1-1v-5.5c0-.2761,.2239-.5,.5-.5,.0692-.0152,.1408-.0152,.21,0h0l5.79,4,5.8-4h0c.066-.0138,.134-.0138,.2,0,.2761,0,.5,.2239,.5,.5Zm-12.75-2.58h0l.08,.08,6.17,4,6.19-4h.06c.1796-.0981,.2792-.2975,.25-.5,0-.2761-.2239-.5-.5-.5H6.5c-.2761,0-.5,.2239-.5,.5,.0026,.1745,.0978,.3345,.25,.42Z" fill="#fff"/></svg>