<?xml version="1.0" encoding="UTF-8"?><svg id="Layer_1" xmlns="http://www.w3.org/2000/svg" width=".8819cm" height=".8819cm" viewBox="0 0 25 25"><rect y="0" width="25" height="25" fill="none"/><g><circle cx="12.5" cy="12.5002" r="11.5"/><path d="M12.5,2c5.7897,0,10.5,4.7103,10.5,10.5s-4.7103,10.5-10.5,10.5S2,18.2897,2,12.5,6.7103,2,12.5,2M12.5,0C5.5964,0,0,5.5964,0,12.5s5.5964,12.5,12.5,12.5,12.5-5.5964,12.5-12.5S19.4036,0,12.5,0h0Z" fill="#fff"/></g><path d="M7.4556,13.6134c-.3376,.5978-.9546,1.6887,.1374,2.4178,.3432,.2268,.7275,.3836,1.131,.4614,.3074,.0456,.3226,.5185-.0385,.5074-.3849-.0193-2.2596-.1934-2.5606-1.5995-.1556-.8213,.0204-1.5571,.504-2.3556l.6974-1.2329-1.3067-.7432,3.4804-2.0688v4l-1.3059-.6943-.7385,1.3077Zm4.2444-6.5794c1.155-.628,1.823,.43,2.191,1.007l.8059,1.2631-1.2659,.8079,3.569,1.874-.197-4.026-1.2639,.8066-.7601-1.1886c-.5218-.7459-.904-1.2968-1.835-1.545-1.637-.3127-2.6433,1.5864-2.633,1.574-.1639,.2871,.2156,.5399,.451,.21,.2582-.3201,.577-.5861,.938-.783Zm6.594,6.187c-.0877-.1897-.5487-.1413-.419,.267,.1312,.3892,.1845,.8003,.157,1.21-.093,1.312-1.348,1.302-2.032,1.302h-1.5v-1.5l-3.5,2,3.488,2.025,.0046-1.525h1.5074c.8906,.0153,1.5999-.1759,2.2-.713,1.2-1.061,.094-3.066,.094-3.066Z" fill="#fff"/></svg>