<?xml version="1.0" encoding="UTF-8"?><svg id="Layer_1" xmlns="http://www.w3.org/2000/svg" width=".8819cm" height=".8819cm" viewBox="0 0 25 25"><rect y="0" width="25" height="25" fill="none"/><g><circle cx="12.5" cy="12.5002" r="11.5"/><path d="M12.5,2c5.7897,0,10.5,4.7103,10.5,10.5s-4.7103,10.5-10.5,10.5S2,18.2897,2,12.5,6.7103,2,12.5,2M12.5,0C5.5964,0,0,5.5964,0,12.5s5.5964,12.5,12.5,12.5,12.5-5.5964,12.5-12.5S19.4036,0,12.5,0h0Z" fill="#fff"/></g><path d="M7,6s-1,0-1,1v5.1582c0,1.7303,.354,3.8418,3.5,3.8418h.5v-3l-2.5,1s0-2.5,2.5-2.5v-1.5c0-.7078,.0868-1.3209,.5-1.7754,.3815-.4196,1.0046-1.2572,2.6562-.4707l.8438,.5488v-1.3027s0-1-1-1c-.7078,0-1.9776,1-3,1s-2.2135-1-3-1Zm1,2c.5523,0,1,.4477,1,1s-.4477,1-1,1-1-.4477-1-1,.4477-1,1-1Zm4,1s-1,0-1,1v5c0,2,1,4,4,4s4-2,4-4v-5c0-1-1-1-1-1-.7078,0-1.9776,1-3,1s-2.2135-1-3-1Zm1,2c.5523,0,1,.4477,1,1s-.4477,1-1,1-1-.4477-1-1,.4477-1,1-1Zm4,0c.5523,0,1,.4477,1,1s-.4477,1-1,1-1-.4477-1-1,.4477-1,1-1Zm-4.5,4h5s0,2.5-2.5,2.5-2.5-2.5-2.5-2.5Z" fill="#fff"/></svg>