<?xml version="1.0" encoding="UTF-8"?><svg id="Layer_1" xmlns="http://www.w3.org/2000/svg" width=".8819cm" height=".8819cm" viewBox="0 0 25 25"><rect y="0" width="25" height="25" fill="none"/><g><circle cx="12.5" cy="12.5002" r="11.5"/><path d="M12.5,2c5.7897,0,10.5,4.7103,10.5,10.5s-4.7103,10.5-10.5,10.5S2,18.2897,2,12.5,6.7103,2,12.5,2M12.5,0C5.5964,0,0,5.5964,0,12.5s5.5964,12.5,12.5,12.5,12.5-5.5964,12.5-12.5S19.4036,0,12.5,0h0Z" fill="#fff"/></g><path d="M8.9468,8c-.8284,0-1.5-.6716-1.5-1.5s.6716-1.5,1.5-1.5,1.5,.6716,1.5,1.5-.6716,1.5-1.5,1.5Zm9.5-1.5c0-.8284-.6716-1.5-1.5-1.5s-1.5,.6716-1.5,1.5,.6716,1.5,1.5,1.5,1.5-.6716,1.5-1.5Zm-5.14,5.14h0l-2.48-2.49h0c-.1002-.1008-.238-.1551-.38-.15h-3c-.1303,.0003-.2555,.0503-.35,.14h0l-2.51,2.49c-.2261,.177-.2659,.5039-.0889,.73s.5039,.2659,.73,.0889c.0331-.0259,.063-.0558,.0889-.0889l2.13-2.16-2,5.8h2v3.33c-.0075,.0497-.0075,.1003,0,.15,.0555,.2761,.3244,.455,.6005,.3995,.2015-.0405,.359-.198,.3995-.3995h0v-3.48h1v3.5h0c.0555,.2761,.3244,.455,.6005,.3995,.2015-.0405,.359-.198,.3995-.3995,.0075-.0497,.0075-.1003,0-.15v-3.35h2l-2-5.8,2.14,2.16h0c.0967,.1081,.2349,.17,.38,.17,.2754-.0212,.4861-.2539,.48-.53,.0023-.1337-.0479-.263-.14-.36Zm5.64-2.64h-4c-.2761,0-.5,.2239-.5,.5v5c0,.2761,.2239,.5,.5,.5s.5-.2239,.5-.5v5c0,.2761,.2239,.5,.5,.5s.5-.2239,.5-.5v-5h1v5c0,.2761,.2239,.5,.5,.5s.5-.2239,.5-.5v-5c0,.2761,.2239,.5,.5,.5s.5-.2239,.5-.5v-5c0-.2761-.2239-.5-.5-.5Z" fill="#fff"/></svg>