<?xml version="1.0" encoding="UTF-8"?><svg id="Layer_1" xmlns="http://www.w3.org/2000/svg" width="25" height="25" viewBox="0 0 25 25"><rect width="25" height="25" fill="none"/><g><circle cx="12.5" cy="12.5" r="11.5"/><path d="M12.5,2c5.7897,0,10.5,4.7103,10.5,10.5s-4.7103,10.5-10.5,10.5S2,18.2897,2,12.5,6.7103,2,12.5,2m0-2C5.5964,0,0,5.5964,0,12.5s5.5964,12.5,12.5,12.5,12.5-5.5964,12.5-12.5S19.4036,0,12.5,0h0Z" fill="#fff"/></g><path d="M11,7c-.554,0-.7522,.5045-1,1l-.5,1h-2c-.831,0-1.5,.669-1.5,1.5v5c0,.831,.669,1.5,1.5,1.5h10c.831,0,1.5-.669,1.5-1.5v-5c0-.831-.669-1.5-1.5-1.5h-2l-.5-1c-.25-.5-.446-1-1-1h-3Zm-3.5,3c.2761,0,.5,.2239,.5,.5s-.2239,.5-.5,.5-.5-.2239-.5-.5,.2239-.5,.5-.5Zm5,0c1.6569,0,3,1.3431,3,3s-1.3431,3-3,3-3-1.3431-3-3,1.3431-3,3-3Zm0,1.5c-.8284,0-1.5,.6716-1.5,1.5h0c0,.8284,.6716,1.5,1.5,1.5h0c.8284,0,1.5-.6716,1.5-1.5h0c0-.8284-.6716-1.5-1.5-1.5h0Z" fill="#fff"/></svg>