<?xml version="1.0" encoding="UTF-8"?><svg id="svg2" xmlns="http://www.w3.org/2000/svg" width="25" height="25" viewBox="0 0 25 25"><rect width="25" height="25" fill="none"/><g><circle cx="12.5" cy="12.5" r="11.5"/><path d="M12.5,2c5.7897,0,10.5,4.7103,10.5,10.5s-4.7103,10.5-10.5,10.5S2,18.2897,2,12.5,6.7103,2,12.5,2m0-2C5.5964,0,0,5.5964,0,12.5s5.5964,12.5,12.5,12.5,12.5-5.5964,12.5-12.5S19.4036,0,12.5,0h0Z" fill="#fff"/></g><path id="path4" d="M12.5,5.5c-3.8656,0-7,3.1344-7,7s3.1344,7,7,7c.6456,0,1.166-.5205,1.166-1.166,0-.3033-.1122-.5771-.3027-.7832-.1828-.2061-.291-.474-.291-.7734,0-.6456,.5205-1.166,1.166-1.166h1.373c2.1467,0,3.8887-1.742,3.8887-3.8887,0-3.4378-3.1344-6.2227-7-6.2227Zm1.9336,1.3047c.7668,.0003,1.3884,.6218,1.3887,1.3887,.0008,.7672-.6205,1.3898-1.3877,1.3906h-.0009c-.7672-.0003-1.389-.6225-1.3887-1.3897v-.0009c.0003-.7668,.6218-1.3884,1.3887-1.3887Zm-3.8945,.0195c.7672-.0008,1.3898,.6205,1.3906,1.3877v.0029c-.0003,.7672-.6225,1.389-1.3897,1.3887h-.0009c-.7668-.0003-1.3884-.6218-1.3887-1.3887-.0008-.7672,.6205-1.3898,1.3877-1.3906h.0009Zm-2.332,3.123c.7672,.0003,1.389,.6225,1.3887,1.3897v.0009c-.0003,.7668-.6218,1.3884-1.3887,1.3887-.7668-.0003-1.3884-.6218-1.3887-1.3887-.0008-.7672,.6205-1.3898,1.3877-1.3906h.0009Zm8.5586,0c.7672,.0003,1.389,.6225,1.3887,1.3897v.0009c-.0003,.7668-.6218,1.3884-1.3887,1.3887-.7668-.0003-1.3884-.6218-1.3887-1.3887-.0008-.7672,.6205-1.3898,1.3877-1.3906h.0009Z" fill="#fff"/></svg>