<?xml version="1.0" encoding="UTF-8"?><svg id="Layer_1" xmlns="http://www.w3.org/2000/svg" width="25" height="25" viewBox="0 0 25 25"><rect width="25" height="25" fill="none"/><g><circle cx="12.5" cy="12.5" r="11.5"/><path d="M12.5,2c5.7897,0,10.5,4.7103,10.5,10.5s-4.7103,10.5-10.5,10.5S2,18.2897,2,12.5,6.7103,2,12.5,2m0-2C5.5964,0,0,5.5964,0,12.5s5.5964,12.5,12.5,12.5,12.5-5.5964,12.5-12.5S19.4036,0,12.5,0h0Z" fill="#fff"/></g><path d="M12.5,6c-.8,0-1.5,.7-1.5,1.5s.7,1.5,1.5,1.5,1.5-.7,1.5-1.5-.7-1.5-1.5-1.5Zm-3.5,4v1s2,0,2,2v2c0,2-2,2-2,2v1h7v-1s-2,0-2-2v-4c0-.5-.5-1-1-1h-4Z" fill="#fff"/></svg>