<?xml version="1.0" encoding="UTF-8"?><svg id="Layer_1" xmlns="http://www.w3.org/2000/svg" width=".8819cm" height=".8819cm" viewBox="0 0 25 25"><rect y="0" width="25" height="25" fill="none"/><g><circle cx="12.5" cy="12.5002" r="11.5"/><path d="M12.5,2c5.7897,0,10.5,4.7103,10.5,10.5s-4.7103,10.5-10.5,10.5S2,18.2897,2,12.5,6.7103,2,12.5,2M12.5,0C5.5964,0,0,5.5964,0,12.5s5.5964,12.5,12.5,12.5,12.5-5.5964,12.5-12.5S19.4036,0,12.5,0h0Z" fill="#fff"/></g><path d="M5.5,7.5c-.3,0-.5,.2-.5,.5v9.5c0,.3,.2,.5,.5,.5s.5-.2,.5-.5v-1.5h13v1.5c0,.3,.2,.5,.5,.5s.5-.2,.5-.5v-2c0-.3-.2-.5-.5-.5H6V8c0-.3-.2-.5-.5-.5Zm3,.5c-.8,0-1.5,.7-1.5,1.5h0c0,.8,.7,1.5,1.5,1.5h0c.8,0,1.5-.7,1.5-1.5h0c0-.8-.7-1.5-1.5-1.5h0Zm3.5,1c-1.5,0-1.5,1.5-1.5,1.5v1.5h-3c-.3,0-.5,.2-.5,.5v1c0,.3,.2,.5,.5,.5h12.5v-2.5c0-2.5-2.5-2.5-2.5-2.5h-5.5Z" fill="#fff"/></svg>