<?xml version="1.0" encoding="UTF-8"?><svg id="Layer_1" xmlns="http://www.w3.org/2000/svg" width="25" height="25" viewBox="0 0 25 25"><rect width="25" height="25" fill="none"/><g><circle cx="12.5" cy="12.5" r="11.5"/><path d="M12.5,2c5.7897,0,10.5,4.7103,10.5,10.5s-4.7103,10.5-10.5,10.5S2,18.2897,2,12.5,6.7103,2,12.5,2m0-2C5.5964,0,0,5.5964,0,12.5s5.5964,12.5,12.5,12.5,12.5-5.5964,12.5-12.5S19.4036,0,12.5,0h0Z" fill="#fff"/></g><path d="M12.5,5l-6.5,3.5v.5h13v-.5l-6.5-3.5Zm-5.5,5v5l-1,1.6v1.4h13v-1.4l-1-1.6v-5H7Zm2,1h1v5.5h-1v-5.5Zm3,0h1v5.5h-1v-5.5Zm3,0h1v5.5h-1v-5.5Z" fill="#fff"/></svg>