<?xml version="1.0" encoding="UTF-8"?><svg id="Layer_1" xmlns="http://www.w3.org/2000/svg" width=".8819cm" height=".8819cm" viewBox="0 0 25 25"><rect y="0" width="25" height="25" fill="none"/><g><circle cx="12.5" cy="12.5002" r="11.5"/><path d="M12.5,2c5.7897,0,10.5,4.7103,10.5,10.5s-4.7103,10.5-10.5,10.5S2,18.2897,2,12.5,6.7103,2,12.5,2M12.5,0C5.5964,0,0,5.5964,0,12.5s5.5964,12.5,12.5,12.5,12.5-5.5964,12.5-12.5S19.4036,0,12.5,0h0Z" fill="#fff"/></g><path d="M9,5c-1.3636,0-3,.7433-3,2.7461v9.2539s0,1,1,1v1s0,1,1,1,1-1,1-1v-1h7v1s0,1,1,1,1-1,1-1v-1s1,0,1-1V7.7461c0-2.0455-1.236-2.7461-2.5996-2.7461h-7.4004Zm.25,1.5h6.5c.1385,0,.25,.1115,.25,.25s-.1115,.25-.25,.25h-6.5c-.1385,0-.25-.1115-.25-.25s.1115-.25,.25-.25Zm-1.25,1.5h9c1,0,1,.9668,1,.9668v3.0332s0,1-1,1H8c-1,0-1-1-1-1v-3s0-1,1-1Zm0,7c.5523,0,1,.4477,1,1s-.4477,1-1,1-1-.4477-1-1,.4477-1,1-1Zm9,0c.5523,0,1,.4477,1,1s-.4477,1-1,1-1-.4477-1-1,.4477-1,1-1Z" fill="#fff"/></svg>