<?xml version="1.0" encoding="UTF-8"?><svg id="Layer_1" xmlns="http://www.w3.org/2000/svg" width=".8819cm" height=".8819cm" viewBox="0 0 25 25"><rect y="0" width="25" height="25" fill="none"/><g><circle cx="12.5" cy="12.5002" r="11.5"/><path d="M12.5,2c5.7897,0,10.5,4.7103,10.5,10.5s-4.7103,10.5-10.5,10.5S2,18.2897,2,12.5,6.7103,2,12.5,2M12.5,0C5.5964,0,0,5.5964,0,12.5s5.5964,12.5,12.5,12.5,12.5-5.5964,12.5-12.5S19.4036,0,12.5,0h0Z" fill="#fff"/></g><g><path d="M8.3,16.9V7.3c0-.1-.1-.2-.2-.2h-1.9c-.1,0-.2,.1-.2,.2v9.6c0,.1,.1,.2,.2,.2h1.9c.1,0,.2-.1,.2-.2Zm-.5-.3h-1.4V7.5h1.4v9.1Z" fill="#fff"/><path d="M11.9,7h-1.9c-.1,0-.2,.1-.2,.2v9.6c0,.1,.1,.2,.2,.2h1.9c.1,0,.2-.1,.2-.2V7.2c0-.1-.1-.2-.2-.2Zm-.2,9.6h-1.4V7.5h1.4v9.1Z" fill="#fff"/><path d="M13.8,7c-.1,0-.2,.1-.2,.2v9.6c0,.1,.1,.2,.2,.2h1.9c.1,0,.2-.1,.2-.2V7.2c0-.1-.1-.2-.2-.2h-1.9Zm1.7,9.6h-1.4V7.5h1.4v9.1Z" fill="#fff"/><path d="M17.7,7c-.1,0-.2,.1-.2,.2v9.6c0,.1,.1,.2,.2,.2h1.9c.1,0,.2-.1,.2-.2V7.2c0-.1-.1-.2-.2-.2h-1.9Zm1.7,9.6h-1.4V7.5h1.4v9.1Z" fill="#fff"/></g></svg>