<?xml version="1.0" encoding="UTF-8"?><svg id="Layer_1" xmlns="http://www.w3.org/2000/svg" width="25" height="25" viewBox="0 0 25 25"><rect width="25" height="25" fill="none"/><g><circle cx="12.5" cy="12.5" r="11.5"/><path d="M12.5,2c5.7897,0,10.5,4.7103,10.5,10.5s-4.7103,10.5-10.5,10.5S2,18.2897,2,12.5,6.7103,2,12.5,2m0-2C5.5964,0,0,5.5964,0,12.5s5.5964,12.5,12.5,12.5,12.5-5.5964,12.5-12.5S19.4036,0,12.5,0h0Z" fill="#fff"/></g><path d="M16.8665,14.107c0,1.1565-.1796,2.0573-.5378,2.7019-.6686,1.1809-1.9432,1.7719-3.8254,1.7719s-3.159-.5906-3.8321-1.7719c-.3589-.6446-.5378-1.5454-.5378-2.7019V7.4193h2.31v6.6825c0,.7474,.0885,1.293,.2651,1.6373,.2745,.6097,.873,.9146,1.7944,.9146,.9169,0,1.5131-.3049,1.788-.9146,.1766-.3442,.2644-.8899,.2644-1.6373V7.4193h2.3107v6.6877h.0005Z" fill="#fff"/></svg>