<?xml version="1.0" encoding="UTF-8"?><svg id="Layer_1" xmlns="http://www.w3.org/2000/svg" width=".8819cm" height=".8819cm" viewBox="0 0 25 25"><rect y="0" width="25" height="25" fill="none"/><g><circle cx="12.5" cy="12.5002" r="11.5"/><path d="M12.5,2c5.7897,0,10.5,4.7103,10.5,10.5s-4.7103,10.5-10.5,10.5S2,18.2897,2,12.5,6.7103,2,12.5,2M12.5,0C5.5964,0,0,5.5964,0,12.5s5.5964,12.5,12.5,12.5,12.5-5.5964,12.5-12.5S19.4036,0,12.5,0h0Z" fill="#fff"/></g><path d="M8,6c-.5523,0-1,.4477-1,1V15c0,.5523,.4477,1,1,1h9c.5523,0,1-.4477,1-1V7c0-.5523-.4477-1-1-1H8Zm2.75,.5h3.5098c.1381,0,.25,.1119,.25,.25s-.1119,.25-.25,.25h-3.5098c-.1381,0-.25-.1119-.25-.25s.1119-.25,.25-.25Zm-2.25,1.5h3.5v4h-3.5c-.2761,0-.5-.2239-.5-.5v-3c0-.2761,.2239-.5,.5-.5Zm4.5,0h3.5c.2761,0,.5,.2239,.5,.5v3c0,.2761-.2239,.5-.5,.5h-3.5V8Zm-3,5c.5523,0,1,.4477,1,1s-.4477,1-1,1-1-.4477-1-1,.4477-1,1-1Zm5,0c.5523,0,1,.4477,1,1s-.4477,1-1,1-1-.4477-1-1,.4477-1,1-1Zm.4453,3.9941c-.0647,.0055-.1303,.0244-.1914,.0566-.2233,.1176-.3237,.3831-.2344,.6191l.1699,.3301h-5.3789l.1289-.2695c.0977-.2583-.0327-.5468-.291-.6445-.236-.0892-.5015,.0112-.6191,.2344l-1,2c-.0212,.0576-.0307,.1184-.0293,.1797,0,.2761,.2239,.5,.5,.5,.1802-.001,.3451-.1006,.4297-.2598v-.0508h.0703l.3105-.6895h6.3789l.3105,.6895v.0508c.0846,.1592,.2495,.2588,.4297,.2598,.2761,0,.5-.2239,.5-.5,.0199-.0788,.0199-.1614,0-.2402l-1-2c-.0965-.1832-.2902-.2822-.4844-.2656Z" fill="#fff"/></svg>