<?xml version="1.0" encoding="UTF-8"?><svg id="Layer_1" xmlns="http://www.w3.org/2000/svg" width="25" height="25" viewBox="0 0 25 25"><rect width="25" height="25" fill="none"/><g><circle cx="12.5" cy="12.5" r="11.5"/><path d="M12.5,2c5.7897,0,10.5,4.7103,10.5,10.5s-4.7103,10.5-10.5,10.5S2,18.2897,2,12.5,6.7103,2,12.5,2m0-2C5.5964,0,0,5.5964,0,12.5s5.5964,12.5,12.5,12.5,12.5-5.5964,12.5-12.5S19.4036,0,12.5,0h0Z" fill="#fff"/></g><path d="M10.5,5c-.5,0-.5,.5-.5,.5v1c0,.277,.223,.5,.5,.5s.5-.223,.5-.5v-.5h1v2h-1s-2,0-2,2v3c0,3,3,3,3,3h1s3,0,3-3v-3c0-2-2-2-2-2h-1v-2h1v.5c0,.277,.223,.5,.5,.5s.5-.223,.5-.5v-1c0-.5-.5-.5-.5-.5h-4Zm2,4l2.0449,.7734,.4551,1.7266c.1316,.5-.5,.5-.5,.5h-4s-.6316,0-.5-.5l.4551-1.7266,2.0449-.7734Zm0,4c.2761,0,.5,.2239,.5,.5s-.2239,.5-.5,.5-.5-.2239-.5-.5,.2239-.5,.5-.5Zm-3.375,4l-1.125,3h1.5l.375-1h5.25l.375,1h1.5l-1.125-3h-1.5l.375,1h-4.5l.375-1h-1.5Z" fill="#fff"/></svg>